<svg width="160" height="40" viewBox="0 0 160 40" fill="none" xmlns="http://www.w3.org/2000/svg">
<g clip-path="url(#clip0_37_654)">
<path fill-rule="evenodd" clip-rule="evenodd" d="M17.3116 28.3181C16.779 28.809 16.0643 29.2374 15.6363 29.8131C15.3678 30.1746 15.0764 30.5494 14.9627 31.018C14.6714 32.1114 14.4073 33.2226 14.166 34.3249C14.1023 34.6106 14.1023 34.9006 13.993 35.1773C13.8838 35.4719 13.7881 35.7932 13.6425 36.0208C13.2192 36.6723 12.4908 38.4976 13.0235 39.3009C14.1979 41.0949 15.9505 39.0287 16.1463 37.6586C16.301 36.5831 17.8032 34.1107 18.3404 33.178C18.5134 32.8701 18.5362 32.7897 18.6909 32.4863C18.8411 32.2007 19.0278 31.9329 19.137 31.625C19.2326 31.3483 19.3465 31.0716 19.4466 30.7949C19.4921 30.6878 19.5604 30.5807 19.574 30.4646C19.6059 30.2237 19.6833 29.9916 19.6651 29.7551C19.6424 29.4962 19.6469 29.2463 19.6059 28.9919C19.4147 27.9878 17.9808 27.6977 17.3116 28.3181Z" fill="#FFA300"/>
<path fill-rule="evenodd" clip-rule="evenodd" d="M22.7606 0.162545C22.4328 0.269651 22.3782 0.314277 22.2188 0.425846C22.1005 0.506176 21.9685 0.657917 21.8774 0.782874C21.2902 1.55939 20.9033 3.96927 20.8395 4.84397C20.7986 5.37057 20.4708 6.7228 20.571 7.22262C20.7075 7.87865 20.4116 8.39186 20.5209 9.06128L20.6165 9.71283C20.6438 9.88242 20.8305 10.1413 20.9305 10.2751C21.0398 10.4269 21.1354 10.592 21.3539 10.6455C21.536 10.6902 21.7045 10.6634 21.8956 10.6366C21.9958 10.6277 22.187 10.5831 22.228 10.5563C22.3099 10.5206 22.3873 10.4849 22.4647 10.4358C22.6377 10.351 22.6741 10.2796 22.747 10.1502C22.7833 10.0877 22.8471 10.0074 22.9108 9.91813C22.97 9.83334 23.061 9.7173 23.0884 9.60126L23.1566 9.27102C23.234 8.90508 23.3524 8.58823 23.4844 8.12856L23.6119 7.75816C23.835 7.13784 24.2127 6.44611 24.3721 5.79008L24.5996 5.02249C24.8592 3.91126 25.0094 2.46532 24.8728 1.34517C24.8318 1.01939 24.6816 0.689151 24.504 0.358907L24.2537 0.184867L24.0307 0.086686C23.935 0.0375957 23.7985 0.0152716 23.6847 0.00634613C23.539 -0.0115049 23.4024 0.0108165 23.2476 0.0420558C23.0565 0.0688323 22.9427 0.104529 22.7606 0.162545Z" fill="#FFA300"/>
<path fill-rule="evenodd" clip-rule="evenodd" d="M16.8924 12.694L17.2247 12.502C17.3931 12.4083 17.5616 12.2968 17.7573 12.2432C17.9849 12.1852 18.2126 12.1004 18.4401 12.0513C19.214 11.8951 20.0016 11.6229 20.7845 11.5247C21.6313 11.4176 22.9059 11.3194 23.7526 11.5872C23.9484 11.6497 24.1031 11.672 24.2488 11.8014C24.3307 11.8817 24.4309 12.0915 24.4991 12.0022C24.6631 11.7568 24.8542 11.4756 25.0318 11.248C25.1456 11.1052 25.2639 10.9624 25.3778 10.8553C25.5416 10.6991 25.7055 10.5295 25.8694 10.3689C26.1743 10.0788 26.5704 9.73516 26.8936 9.47186C27.5309 8.93187 28.1637 8.41418 28.8511 7.94559C29.1379 7.75369 29.4019 7.57073 29.6978 7.37883C30.6265 6.78974 30.326 7.0709 31.282 6.70941C32.1242 6.39702 32.8844 5.96412 33.6765 5.62495C33.9678 5.5 34.4139 5.24563 34.819 5.29472C35.6065 5.37504 36.2895 6.13372 35.4882 7.11106C35.3699 7.26726 35.247 7.42345 35.0876 7.52609C33.5945 8.52575 33.9269 8.39187 32.7796 9.72177C31.6553 11.016 28.8238 12.6716 27.3261 13.341L26.5431 13.6891C26.6524 13.9212 26.7617 14.1667 26.88 14.3987C27.1531 14.9209 27.5947 15.8893 27.7085 16.4561C27.8496 17.1879 27.7404 18.5312 27.3762 19.2363C27.2168 19.5264 26.7617 20.3119 26.5113 20.5082C25.8056 21.0661 25.0364 21.6061 24.2124 21.9318L23.0242 22.4004C22.7056 22.4852 22.2959 22.6325 21.9681 22.6771C21.3627 22.7664 20.8028 22.8467 20.211 22.8601C19.5327 22.8601 19.041 22.7575 18.3992 22.5299C17.9622 22.2353 17.5935 22.0122 17.3977 21.5213C17.293 21.2535 17.2611 21.0527 17.1928 20.7626C17.1792 20.5529 17.2202 20.2985 17.2748 20.1155C17.3295 19.9593 17.384 19.8076 17.4568 19.6737C17.5525 19.5041 17.6754 19.3345 17.8712 19.2542C18.0805 19.1694 18.3082 19.0891 18.5312 19.1337L18.7042 19.1605C19.1048 19.2408 19.1867 19.7094 19.2687 19.7585C22.7875 21.7578 27.408 15.8982 22.5736 14.8673C21.5084 14.6353 19.4417 14.9834 18.4311 15.568C18.0213 15.8045 17.5707 16.041 17.202 16.3579C13.897 19.1649 10.9836 24.4131 17.4797 25.81C18.5903 25.9796 19.7194 26.0688 20.8118 25.8859C21.8589 25.7163 22.6327 25.1763 23.5204 24.6184C23.8528 24.4042 24.2169 24.1543 24.5174 23.9535C25.4506 23.2975 26.3473 22.4718 27.1941 21.7355C27.6311 21.3562 27.9315 21.0259 28.2866 20.5662C28.3731 20.4725 28.4551 20.3253 28.5369 20.1958C28.9102 19.638 29.0742 18.7767 29.6932 18.5268C30.0892 18.3661 30.4398 18.2545 30.8085 18.3349C30.9269 18.3616 31.0635 18.3572 31.1636 18.4241C31.2728 18.4955 31.4095 18.5268 31.4823 18.6294C31.5733 18.7633 31.7008 18.8793 31.7554 19.0266C31.8646 19.3568 31.9057 19.8968 31.6916 20.236C31.4231 20.6555 31.1591 21.0795 30.8814 21.5079C30.6447 21.9319 30.1303 22.6637 30.0802 23.1413C30.0437 23.4938 30.0711 23.8731 29.9527 24.2034C29.848 24.5024 29.7979 24.8326 29.6295 25.1004C29.3973 25.4619 29.2061 25.8591 28.9285 26.1804C28.4551 26.7338 28.0044 27.2782 27.4126 27.6977C26.7798 28.1529 26.1653 28.6394 25.5052 29.0589C25.2457 29.224 25.0045 29.4203 24.7313 29.5587C24.44 29.7149 24.0439 29.8979 23.7162 30.0005C22.5463 30.362 21.6722 30.5762 20.5297 30.6298C19.5646 30.6699 18.6086 30.7324 17.6481 30.6967C17.2976 30.6922 17.0153 30.5985 16.7239 30.5137C16.3189 30.3977 15.9729 30.2549 15.6132 30.0719C15.2127 29.8711 14.7802 29.7104 14.3795 29.5185C13.8834 29.2865 13.3189 29.099 12.9092 28.7375L12.2172 28.1172C12.1581 28.3984 12.1717 28.7509 12.1081 28.8804C11.9669 29.1437 11.8395 29.398 11.671 29.6078C11.3796 29.9514 10.8744 30.2906 10.4738 30.478C9.85922 30.7859 9.05803 31.4821 8.54818 31.6696C7.59676 32.0087 6.99131 32.5175 5.9261 32.7585C5.1249 32.9459 3.32678 33.294 2.75319 33.8876C2.42999 34.2133 1.43761 34.5793 1.06888 34.4008C0.804851 34.2714 0.49985 34.1732 0.395149 33.9143C0.208508 33.419 -0.169326 32.7094 0.0855981 32.214C0.222165 31.9507 0.313211 31.7588 0.53627 31.558C0.786643 31.3349 1.08254 31.1251 1.37843 30.9957C1.63335 30.8752 1.91104 30.7458 2.11133 30.6342C2.35715 30.4959 2.5529 30.4245 2.72133 30.2192C2.91253 29.9827 3.12648 29.7238 3.28126 29.4739C4.09155 28.1663 5.30244 27.662 6.54521 26.7561C6.87296 26.5374 7.33729 26.3544 7.72423 26.1759C8.06109 26.0242 8.36609 25.9082 8.68475 25.743C8.88504 25.6359 9.54511 25.444 9.77728 25.4842L10.2598 25.569C10.1597 25.2834 10.0367 25.0156 9.97758 24.7255C9.7181 23.5072 9.88197 22.1773 10.3281 20.9947C9.08989 21.1776 3.95043 21.9185 2.77596 21.4945C2.55745 21.4097 2.25246 21.3517 2.04761 21.2535C1.19634 20.8429 0.659181 19.7273 0.864031 18.7544C0.895896 18.6071 0.932313 18.4777 0.986939 18.3483C1.08253 18.1474 1.20544 17.9555 1.35112 17.7815C1.49679 17.6298 1.67433 17.5494 1.87462 17.5003C2.33895 17.3977 3.00812 17.2683 3.26305 17.2236C3.54529 17.1746 3.96409 17.1433 4.11432 17.1433C4.392 17.1389 4.67423 17.1389 4.95193 17.1299C5.48453 17.121 6.13095 17.0674 6.58617 17.0898C7.76064 17.1344 8.69385 17.1701 9.9366 17.0808C10.2143 17.063 11.3433 17.0585 11.5891 17.2058C11.6436 17.2415 11.7074 17.2594 11.7484 17.3084L11.9851 17.5539C11.9624 17.0719 12.3812 16.3311 12.6452 15.9652C12.718 15.8714 12.8364 15.7242 12.9547 15.6171L13.5419 15.0637C13.6831 14.9343 13.9607 14.7156 14.1247 14.546C14.3158 14.372 14.5343 14.189 14.7392 14.0328C14.8348 13.9658 15.0397 13.8364 15.158 13.8007L15.4994 13.6981C15.3583 13.5731 15.1353 13.533 15.0168 13.3723C14.8939 13.2116 14.8166 13.4169 14.6527 13.466C14.4615 13.5329 14.2658 13.5865 14.07 13.6133C13.9244 13.6311 13.6558 13.6088 13.5283 13.5196C12.9638 13.1001 12.1444 12.8457 11.6892 12.453C11.4708 12.2611 11.1156 11.971 10.9245 11.788C10.2871 11.1543 10.4829 10.4492 10.319 9.65037C10.1005 8.57038 11.3068 7.84742 12.1444 7.71353C14.507 7.31635 16.3461 13.0197 16.8924 12.694Z" fill="#FFA300"/>
<path fill-rule="evenodd" clip-rule="evenodd" d="M23.5569 26.6535L23.27 27.4835C23.179 27.7825 23.2382 28.0592 23.1199 28.3225C22.9787 28.6438 22.8148 28.9696 22.8148 29.3266C22.8194 29.9559 22.7283 30.603 22.8284 31.2278C22.9469 31.9507 22.9741 32.7094 23.2017 33.4145C23.3292 33.8296 23.3657 34.2848 23.5932 34.6596L23.9119 35.1862L24.1168 35.4094L24.2261 35.4897C24.358 35.6147 24.5629 35.6861 24.6266 35.8646C24.7951 36.3242 24.7859 36.9133 25.1365 37.248C25.2594 37.3685 25.3596 37.5069 25.5006 37.5961C25.8056 37.7791 26.2244 37.9799 26.6023 37.8594C27.2032 37.672 27.3852 37.73 27.4718 37.2257C27.6083 36.4849 27.4444 36.2127 27.2305 35.5076C27.0666 34.9631 27.0893 34.9943 27.2305 34.5838C27.2806 34.4633 27.3808 34.3472 27.367 34.2178C27.2806 33.5796 27.2168 32.9816 27.1076 32.3569C26.9983 31.8883 26.8435 31.4331 26.7661 30.9779C26.625 30.1924 26.5203 29.4025 26.3383 28.626C26.2609 28.2824 26.1106 27.9253 25.9786 27.604C25.8329 27.2247 25.7191 26.8186 25.4597 26.5151C25.0864 26.0688 23.7389 26.1224 23.5569 26.6535Z" fill="#FFA300"/>
<path fill-rule="evenodd" clip-rule="evenodd" d="M27.4671 24.3997C29.5611 21.3294 33.4988 25.1718 35.7066 26.1893C36.0344 26.3411 36.3166 26.5508 36.6262 26.7249L37.1634 27.0149C37.746 27.2916 38.3242 27.6129 38.2149 28.3984C38.1876 28.5947 38.0328 28.7777 37.8735 28.8804C37.5139 29.0946 36.831 29.041 36.485 28.8848C33.5717 27.5371 30.1666 27.9878 27.6901 25.3771C27.4716 25.154 27.2986 24.6497 27.4671 24.3997Z" fill="#FFA300"/>
<path d="M117.446 34.8917C117.446 34.6953 117.537 34.5391 117.729 34.4365C117.91 34.3383 118.229 34.2803 118.675 34.2803C118.908 34.2803 119.076 34.2937 119.189 34.316V35.2755C118.903 35.4361 118.57 35.5209 118.188 35.5209C117.988 35.5209 117.811 35.4719 117.669 35.3692C117.519 35.271 117.446 35.1148 117.446 34.8917ZM115.67 34.9943C115.67 35.2889 115.725 35.5522 115.844 35.7798C115.957 36.0118 116.112 36.1948 116.299 36.3287C116.49 36.467 116.704 36.5697 116.928 36.6366C117.155 36.7036 117.387 36.7348 117.637 36.7348C118.316 36.7348 118.898 36.4938 119.381 36.0208C119.426 36.1636 119.485 36.2841 119.563 36.3822C119.64 36.4804 119.736 36.5518 119.845 36.592C119.946 36.6411 120.05 36.6634 120.15 36.6813C120.25 36.6991 120.364 36.708 120.491 36.708C120.688 36.708 120.915 36.6902 121.17 36.6455C121.425 36.6054 121.643 36.5563 121.821 36.4893V35.4585C121.643 35.4808 121.498 35.4942 121.37 35.4942C121.211 35.4942 121.093 35.4406 121.02 35.338C120.947 35.2353 120.91 35.0479 120.91 34.7801C120.91 34.7578 120.91 34.4365 120.915 33.834C120.919 33.2315 120.919 32.8477 120.919 32.6826C120.919 32.0534 120.793 31.5982 120.528 31.3036C120.364 31.1251 120.118 30.9823 119.804 30.8707C119.495 30.7681 119.026 30.7145 118.411 30.7145C118.134 30.7145 117.851 30.7458 117.537 30.8038C117.228 30.8618 116.964 30.9332 116.75 31.018C116.34 31.1921 116.131 31.4821 116.131 31.8793C116.131 32.1694 116.167 32.5175 116.249 32.9236H117.278C117.296 32.522 117.383 32.2631 117.528 32.1605C117.687 32.0445 117.937 31.9864 118.275 31.9864C118.629 31.9864 118.876 32.0534 119.003 32.1828C119.13 32.3211 119.195 32.5666 119.195 32.9191V33.2494C119.103 33.2315 118.925 33.2271 118.666 33.2271C117.937 33.2271 117.346 33.2985 116.9 33.4368C116.454 33.5752 116.135 33.7715 115.949 34.0259C115.762 34.2892 115.67 34.6061 115.67 34.9943ZM109.653 33.8876C109.653 34.7801 109.922 35.4808 110.467 35.9985C111.01 36.5206 111.706 36.7794 112.557 36.7794C113.003 36.7794 113.449 36.708 113.9 36.5518C114.346 36.4001 114.737 36.1993 115.07 35.9271L114.556 34.9319C113.991 35.2353 113.458 35.387 112.954 35.387C111.97 35.387 111.478 34.8426 111.478 33.7581C111.478 33.178 111.601 32.7451 111.851 32.464C112.102 32.1873 112.411 32.0489 112.794 32.0489C113.099 32.0489 113.313 32.098 113.426 32.1873C113.581 32.3078 113.673 32.5577 113.705 32.937H114.77C114.838 32.5443 114.875 32.1337 114.875 31.7053C114.875 31.4777 114.815 31.3036 114.692 31.1876C114.569 31.0671 114.374 30.9645 114.114 30.8886C113.736 30.7815 113.3 30.7279 112.812 30.7279C111.874 30.7279 111.109 31.0091 110.532 31.5669C109.949 32.1248 109.653 32.8968 109.653 33.8876ZM104.258 36.6143C104.631 36.5965 105.237 36.592 106.075 36.592C106.602 36.592 107.231 36.5965 107.963 36.6143V35.6325C107.441 35.6057 107.145 35.5477 107.063 35.4629C106.971 35.3647 106.921 35.1148 106.921 34.74V32.4059C107.122 32.2319 107.345 32.1471 107.577 32.1471C107.709 32.1471 107.814 32.1917 107.882 32.2721C107.95 32.3568 108.001 32.513 108.037 32.7451H109.089C109.175 32.1382 109.215 31.7276 109.215 31.5045C109.215 30.9957 108.942 30.7413 108.391 30.7413C108.123 30.7413 107.846 30.8172 107.573 30.9689C107.3 31.1251 107.072 31.317 106.898 31.5491C106.867 31.2546 106.776 31.0582 106.635 30.9422C106.493 30.8306 106.307 30.7726 106.097 30.7726C105.492 30.7726 104.872 30.9243 104.258 31.2278V32.1873C104.327 32.1828 104.431 32.1739 104.572 32.1739C104.836 32.1739 105 32.223 105.069 32.3211C105.137 32.4238 105.174 32.6648 105.174 33.0307V34.7623C105.174 35.1282 105.142 35.3469 105.073 35.4228C105.023 35.4718 104.946 35.5076 104.841 35.5343C104.741 35.5656 104.541 35.5879 104.263 35.6191V36.6143H104.258ZM99.7289 33.0039C99.7608 32.6558 99.8792 32.397 100.102 32.2363C100.321 32.0757 100.598 31.9954 100.926 31.9954C101.24 31.9954 101.482 32.0712 101.65 32.223C101.814 32.3792 101.896 32.5844 101.896 32.8299V32.9549L99.7289 33.0039ZM97.9262 33.8742C97.9262 34.7578 98.1948 35.454 98.7411 35.9851C99.2828 36.5117 99.9929 36.775 100.881 36.775C101.431 36.775 101.959 36.6902 102.451 36.5251C102.947 36.3644 103.366 36.1323 103.721 35.8556L103.193 34.8471C102.478 35.1996 101.818 35.3737 101.199 35.3737C100.735 35.3737 100.375 35.2621 100.111 35.0256C99.8473 34.7935 99.7107 34.5168 99.7107 34.1866V34.0884H102.761C103.061 34.0884 103.275 34.0259 103.389 33.901C103.507 33.776 103.562 33.535 103.562 33.1824C103.562 32.8299 103.512 32.513 103.416 32.2185C103.325 31.9329 103.175 31.674 102.984 31.4464C102.783 31.2188 102.519 31.0359 102.187 30.9109C101.85 30.7904 101.463 30.7235 101.026 30.7235C100.102 30.7235 99.3556 31.0002 98.782 31.5491C98.2131 32.1069 97.9262 32.879 97.9262 33.8742ZM91.9583 33.8876C91.9583 34.7801 92.2269 35.4808 92.7731 35.9985C93.3149 36.5206 94.0113 36.7794 94.8626 36.7794C95.3088 36.7794 95.7548 36.708 96.2055 36.5518C96.6516 36.4001 97.0431 36.1993 97.3755 35.9271L96.861 34.9319C96.2965 35.2353 95.7639 35.387 95.2587 35.387C94.2753 35.387 93.7837 34.8426 93.7837 33.7581C93.7837 33.178 93.9066 32.7451 94.157 32.464C94.4074 32.1873 94.7169 32.0489 95.0993 32.0489C95.4043 32.0489 95.6183 32.098 95.732 32.1873C95.8868 32.3078 95.9778 32.5577 96.0097 32.937H97.075C97.1432 32.5443 97.1797 32.1337 97.1797 31.7053C97.1797 31.4777 97.1205 31.3036 96.9976 31.1876C96.8747 31.0671 96.6789 30.9645 96.4194 30.8886C96.0416 30.7815 95.6045 30.7279 95.1175 30.7279C94.1797 30.7279 93.4149 31.0091 92.8369 31.5669C92.2541 32.1248 91.9583 32.8968 91.9583 33.8876ZM84.5017 33.0039C84.5336 32.6558 84.6519 32.397 84.875 32.2363C85.0935 32.0757 85.3712 31.9954 85.699 31.9954C86.0131 31.9954 86.2543 32.0712 86.4227 32.223C86.5867 32.3792 86.6686 32.5844 86.6686 32.8299V32.9549L84.5017 33.0039ZM82.6991 33.8742C82.6991 34.7578 82.9677 35.454 83.5139 35.9851C84.0556 36.5117 84.7658 36.775 85.6535 36.775C86.2042 36.775 86.7323 36.6902 87.224 36.5251C87.7202 36.3644 88.139 36.1323 88.494 35.8556L87.966 34.8471C87.2513 35.1996 86.5913 35.3737 85.9721 35.3737C85.5078 35.3737 85.1481 35.2621 84.8841 35.0256C84.6201 34.7935 84.4835 34.5168 84.4835 34.1866V34.0884H87.5335C87.834 34.0884 88.0479 34.0259 88.1618 33.901C88.2801 33.776 88.3347 33.535 88.3347 33.1824C88.3347 32.8299 88.2847 32.513 88.1891 32.2185C88.098 31.9329 87.9477 31.674 87.7565 31.4464C87.5562 31.2188 87.2922 31.0359 86.96 30.9109C86.623 30.7904 86.2361 30.7235 85.7992 30.7235C84.875 30.7235 84.1285 31.0002 83.5549 31.5491C82.9858 32.1069 82.6991 32.879 82.6991 33.8742ZM77.3047 36.6143C77.6779 36.5965 78.2834 36.592 79.121 36.592C79.649 36.592 80.2773 36.5965 81.0102 36.6143V35.6325C80.4866 35.6057 80.1907 35.5477 80.1089 35.4629C80.0177 35.3647 79.9678 35.1148 79.9678 34.74V32.4059C80.168 32.2319 80.391 32.1471 80.6232 32.1471C80.7553 32.1471 80.8599 32.1917 80.9282 32.2721C80.9966 32.3568 81.0466 32.513 81.083 32.7451H82.1345C82.2211 32.1382 82.262 31.7276 82.262 31.5045C82.262 30.9957 81.9889 30.7413 81.4381 30.7413C81.1695 30.7413 80.8918 30.8172 80.6187 30.9689C80.3455 31.1251 80.1179 31.317 79.9449 31.5491C79.9131 31.2546 79.822 31.0582 79.6809 30.9422C79.5398 30.8306 79.3531 30.7726 79.1438 30.7726C78.5384 30.7726 77.9193 30.9243 77.3047 31.2278V32.1873C77.373 32.1828 77.4777 32.1739 77.6188 32.1739C77.8828 32.1739 78.0466 32.223 78.115 32.3211C78.1833 32.4238 78.2197 32.6648 78.2197 33.0307V34.7623C78.2197 35.1282 78.1878 35.3469 78.1196 35.4228C78.0695 35.4718 77.9921 35.5076 77.8874 35.5343C77.7872 35.5656 77.5869 35.5879 77.3093 35.6191V36.6143H77.3047ZM72.3792 32.4773C72.543 32.3792 72.7296 32.2944 72.93 32.2274C73.1303 32.1694 73.326 32.1382 73.5172 32.1382C74.3366 32.1382 74.7464 32.6737 74.7464 33.7448C74.7464 34.2312 74.6279 34.6195 74.4049 34.9006C74.1728 35.1818 73.8222 35.3246 73.367 35.3246C72.9664 35.3246 72.6432 35.28 72.3837 35.2041V32.4773H72.3792ZM69.7252 39.8186C70.704 39.8007 71.3459 39.7918 71.6508 39.7918C71.9877 39.7918 72.6295 39.8007 73.59 39.8186V38.8502C73.2168 38.8234 72.9619 38.8011 72.8208 38.7743C72.6796 38.7431 72.5885 38.694 72.5385 38.6404C72.4838 38.569 72.4383 38.4708 72.4201 38.3592C72.402 38.2388 72.3928 38.0424 72.3928 37.7702V36.6277C72.8389 36.6812 73.1394 36.7125 73.2896 36.7125C74.3731 36.7125 75.197 36.4224 75.7706 35.8512C76.3442 35.2755 76.6309 34.5168 76.6309 33.5752C76.6309 33.1601 76.5854 32.7853 76.508 32.4416C76.4216 32.1069 76.2941 31.8035 76.1166 31.5402C75.939 31.2813 75.7023 31.0805 75.4064 30.9377C75.106 30.7993 74.7554 30.7279 74.3594 30.7279C73.9724 30.7279 73.6083 30.8038 73.2669 30.9689C72.9163 31.1296 72.6159 31.3304 72.3609 31.5759C72.3427 31.2724 72.2563 31.0582 72.1151 30.9511C71.974 30.844 71.7874 30.7904 71.5462 30.7904C70.9452 30.7904 70.3352 30.9421 69.7161 31.2456V32.2051C69.7935 32.2007 69.8937 32.1917 70.0302 32.1917C70.2123 32.1917 70.3489 32.2185 70.4399 32.2765C70.5583 32.3658 70.6174 32.6246 70.6174 33.0486V37.9308V38.2789C70.6174 38.3414 70.6038 38.4173 70.5856 38.5065C70.5628 38.5958 70.5356 38.6493 70.5127 38.6672C70.4855 38.685 70.4354 38.7163 70.3534 38.752C70.276 38.7877 70.1941 38.81 70.1076 38.8189C70.0166 38.8234 69.8845 38.8368 69.7161 38.8546V39.8186H69.7252ZM58.5313 36.6143C58.9046 36.5965 59.5237 36.592 60.3704 36.592C60.6389 36.592 61.1489 36.5965 61.8999 36.6143V35.6325C61.7133 35.6147 61.5813 35.5968 61.5039 35.5745C61.4265 35.5522 61.3628 35.5165 61.3127 35.4674C61.2353 35.3915 61.1944 35.155 61.1944 34.7667V32.4595C61.5722 32.2988 61.9181 32.214 62.2231 32.214C62.5827 32.214 62.8104 32.281 62.9151 32.4149C63.0153 32.5532 63.0608 32.8344 63.0608 33.2539V34.7533C63.0608 35.155 63.0289 35.3826 62.9743 35.4361C62.9287 35.4897 62.8696 35.5254 62.783 35.5566C62.6966 35.5879 62.5509 35.6102 62.3506 35.6325V36.6143C63.0835 36.5965 63.6663 36.592 64.0987 36.592C64.3764 36.592 64.8635 36.5965 65.5644 36.6143V35.6325C65.3323 35.6102 65.1684 35.579 65.0774 35.5432C64.9864 35.5075 64.9181 35.4585 64.8862 35.4004C64.8407 35.3246 64.827 35.1148 64.827 34.7757V32.821C64.827 32.7362 64.8225 32.6202 64.7997 32.455C65.1913 32.2944 65.5372 32.2096 65.8376 32.2096C66.1927 32.2096 66.4248 32.281 66.5295 32.4238C66.6343 32.5711 66.6889 32.8478 66.6889 33.2494V34.7489C66.6889 35.1148 66.6524 35.3424 66.5796 35.4317C66.4886 35.5343 66.2929 35.6013 66.0015 35.628V36.6099C66.7344 36.592 67.308 36.5875 67.7268 36.5875C68.1046 36.5875 68.6555 36.592 69.3702 36.6099V35.628C69.0605 35.5923 68.8512 35.5566 68.7374 35.5209C68.619 35.4897 68.5462 35.4451 68.5144 35.3826C68.4643 35.3067 68.4415 35.1014 68.4415 34.7712V32.7987C68.4415 31.982 68.3003 31.4375 68.0136 31.1564C67.745 30.8931 67.349 30.7636 66.8164 30.7636C66.4567 30.7636 66.0834 30.8484 65.6919 31.0136C65.2914 31.1831 64.9636 31.4018 64.6905 31.683C64.4993 31.0671 64.0167 30.7592 63.2383 30.7592C62.8787 30.7592 62.5054 30.8351 62.1321 30.9912C61.7543 31.1519 61.4356 31.3617 61.1852 31.6294C61.1579 31.3126 61.076 31.0894 60.9348 30.9645C60.7937 30.8395 60.6071 30.777 60.3749 30.777C59.7695 30.777 59.1504 30.9288 58.5359 31.2322V32.1917C58.6041 32.1873 58.7089 32.1783 58.85 32.1783C59.114 32.1783 59.2779 32.2274 59.3462 32.3256C59.4144 32.4283 59.4509 32.6692 59.4509 33.0352V34.7667C59.4509 35.1327 59.419 35.3514 59.3507 35.4272C59.3007 35.4763 59.2233 35.512 59.1185 35.5388C59.0184 35.57 58.8181 35.5923 58.5404 35.6236V36.6143H58.5313ZM54.0019 33.0039C54.0337 32.6558 54.1521 32.397 54.3751 32.2363C54.5936 32.0757 54.8714 31.9954 55.199 31.9954C55.5132 31.9954 55.7545 32.0712 55.9229 32.223C56.0867 32.3792 56.1687 32.5844 56.1687 32.8299V32.9549L54.0019 33.0039ZM52.1992 33.8742C52.1992 34.7578 52.4677 35.454 53.014 35.9851C53.5557 36.5117 54.2658 36.775 55.1535 36.775C55.7044 36.775 56.2324 36.6902 56.724 36.5251C57.2202 36.3644 57.639 36.1323 57.9942 35.8556L57.4661 34.8471C56.7514 35.1996 56.0913 35.3737 55.4722 35.3737C55.0079 35.3737 54.6483 35.2621 54.3842 35.0256C54.1202 34.7935 53.9837 34.5168 53.9837 34.1866V34.0884H57.0336C57.3341 34.0884 57.548 34.0259 57.6618 33.901C57.7802 33.776 57.8348 33.535 57.8348 33.1824C57.8348 32.8299 57.7847 32.513 57.6891 32.2185C57.5981 31.9329 57.4479 31.674 57.2567 31.4464C57.0564 31.2188 56.7924 31.0359 56.46 30.9109C56.1232 30.7904 55.7363 30.7235 55.2992 30.7235C54.3751 30.7235 53.6286 31.0002 53.0549 31.5491C52.486 32.1069 52.1992 32.879 52.1992 33.8742ZM48.5665 28.7822C48.5665 29.0633 48.6575 29.2999 48.8397 29.4962C49.0171 29.6926 49.2539 29.7908 49.5544 29.7908C49.8775 29.7908 50.1324 29.6926 50.3236 29.4962C50.5149 29.2999 50.6059 29.0544 50.6059 28.7599C50.6059 28.4653 50.5285 28.2243 50.3601 28.0458C50.1917 27.8673 49.9367 27.7781 49.5862 27.7781C49.2857 27.7781 49.0354 27.8718 48.8487 28.0592C48.6621 28.2467 48.5665 28.4876 48.5665 28.7822ZM47.9656 36.6143C48.3389 36.5965 48.9443 36.592 49.7819 36.592C50.2326 36.592 50.8198 36.5965 51.5391 36.6143V35.6325C51.0794 35.5968 50.8153 35.5388 50.7516 35.4495C50.6742 35.3603 50.6332 35.1327 50.6332 34.7667C50.6332 34.4186 50.6378 33.8965 50.6606 33.2003C50.6787 32.513 50.6833 32.0266 50.6833 31.7544C50.6833 31.3884 50.6105 31.1296 50.4602 30.9957C50.3054 30.8574 50.1006 30.786 49.8366 30.786C49.2129 30.786 48.5893 30.9377 47.9702 31.2412V32.2007C48.0384 32.1962 48.1431 32.1873 48.2842 32.1873C48.5482 32.1873 48.7122 32.2363 48.7804 32.3345C48.8487 32.4372 48.8852 32.6782 48.8852 33.0441V34.7757C48.8852 35.1416 48.8533 35.3603 48.785 35.4361C48.7349 35.4852 48.6575 35.5209 48.5528 35.5477C48.4527 35.579 48.2523 35.6013 47.9747 35.6325V36.6143H47.9656ZM42.2434 35.4228C42.2434 35.695 42.3026 35.9315 42.421 36.1323C42.5348 36.3287 42.7442 36.476 43.0538 36.5786C43.4407 36.7125 43.946 36.775 44.5833 36.775C45.3663 36.775 46.0082 36.6188 46.5089 36.2975C47.0096 35.9806 47.26 35.5254 47.26 34.9319C47.26 34.5124 47.1553 34.1732 46.9414 33.9233C46.7274 33.6734 46.3131 33.4368 45.694 33.2182L44.5332 32.7987C44.3602 32.7362 44.2418 32.6782 44.1736 32.6112C44.1053 32.5532 44.0734 32.4684 44.0734 32.3658C44.0734 32.0891 44.3056 31.9507 44.77 31.9507C45.1842 31.9507 45.4755 32.0043 45.6485 32.1203C45.7395 32.1783 45.8079 32.2587 45.8624 32.3524C45.9125 32.4506 45.9535 32.6112 45.9854 32.8299H46.9141C46.9823 32.455 47.0142 32.0935 47.0142 31.741C47.0142 31.3884 46.873 31.1341 46.5863 30.9912C46.213 30.8127 45.694 30.719 45.0203 30.719C44.16 30.719 43.4954 30.8931 43.0401 31.2367C42.5758 31.5803 42.3436 32.0177 42.3436 32.5398C42.3436 32.7406 42.3619 32.9147 42.4028 33.062C42.4393 33.2092 42.5121 33.3565 42.6213 33.5038C42.726 33.6555 42.8853 33.7849 43.0993 33.9143C43.3041 34.0393 43.5772 34.1643 43.905 34.2847L45.0567 34.7042C45.2207 34.7578 45.3344 34.8203 45.3981 34.8783C45.4619 34.9452 45.4892 35.0256 45.4892 35.1416C45.4892 35.4094 45.2207 35.5477 44.6789 35.5477C44.1963 35.5477 43.8413 35.4495 43.6137 35.2532C43.4134 35.0925 43.2859 34.8203 43.2268 34.432H42.2844C42.2617 34.6284 42.2434 34.9586 42.2434 35.4228Z" fill="#C8102E"/>
<path d="M70.5854 24.1543V21.9051C71.0771 21.856 71.5597 21.8247 72.0331 21.7533C72.7022 21.6596 72.9299 21.4142 72.948 20.7269C72.9754 19.7183 72.9709 18.7097 72.9709 17.6967C72.9709 14.7424 72.9709 11.788 72.9526 8.82919C72.9481 7.77152 72.7068 7.54838 71.6461 7.4859C71.2957 7.46359 70.9497 7.43235 70.5854 7.40558V5.20544C70.6902 5.19652 70.7995 5.16974 70.9087 5.1742C73.9177 5.20098 76.9313 5.1742 79.9358 5.28577C81.3287 5.33932 82.749 5.54015 84.0965 5.90163C86.7504 6.61567 88.3756 8.4454 88.981 11.1454C89.5819 13.8186 89.5546 16.4918 88.5121 19.0578C87.5926 21.3294 85.8446 22.7262 83.5457 23.4313C81.8886 23.9401 80.1816 24.1141 78.4653 24.1365C75.9389 24.1677 73.4169 24.1498 70.8905 24.1498C70.804 24.1543 70.7175 24.1543 70.5854 24.1543ZM77.2636 8.39631C77.25 8.49449 77.2317 8.54804 77.2317 8.60606C77.2317 12.3726 77.2272 16.1437 77.2363 19.9102C77.2363 20.6243 77.4912 20.9411 78.2287 21.0081C79.0116 21.0795 79.8129 21.1062 80.5913 21.017C82.3848 20.8162 83.7141 19.9013 84.2923 18.1251C84.9932 15.9607 85.007 13.7472 84.406 11.556C83.9782 9.99397 82.9357 9.03894 81.3697 8.673C80.0268 8.3606 78.6657 8.35614 77.2636 8.39631Z" fill="#C8102E"/>
<path d="M41.2786 24.3328V22.0925C41.6974 22.0434 42.1026 21.9988 42.5077 21.9497C43.4682 21.8292 43.6457 21.6552 43.6503 20.6867C43.6639 17.362 43.6593 14.0328 43.6593 10.708C43.6593 10.0699 43.6593 9.43167 43.6412 8.7935C43.623 8.20441 43.4636 7.99021 42.8947 7.86972C42.3666 7.75815 41.8294 7.6912 41.2786 7.59748V5.4018C41.4106 5.39734 41.5244 5.38396 41.6381 5.38396C45.8809 5.38396 50.1235 5.37949 54.3663 5.39288C54.7851 5.39288 55.2175 5.45537 55.6181 5.58032C56.2281 5.76776 56.5331 6.2051 56.5012 6.85666C56.442 8.09731 56.3418 9.34242 56.2554 10.6411C55.4815 10.6411 54.7486 10.65 54.0203 10.6277C53.9337 10.6232 53.8154 10.4581 53.7789 10.3421C53.6652 9.96274 53.5969 9.56555 53.4786 9.18175C53.3419 8.73994 53.0552 8.41417 52.5726 8.39185C51.0386 8.32491 49.5044 8.28474 47.943 8.23565V13.3544C48.7534 13.3009 49.5409 13.2875 50.3193 13.1938C50.8746 13.1268 51.0749 12.6449 51.2297 12.1629C51.4937 11.3194 51.4983 11.3194 52.3906 11.3194H53.5104V18.0716C52.8958 18.0716 52.295 18.0805 51.6986 18.0582C51.6212 18.0537 51.5074 17.902 51.4847 17.8038C51.1114 16.224 50.952 16.0856 49.3496 16.0723C48.899 16.0678 48.4438 16.0723 47.9658 16.0723C47.9475 16.1838 47.9248 16.2686 47.9248 16.3534C47.9248 17.661 47.9112 18.9686 47.9294 20.2717C47.943 21.191 48.1342 21.4588 49.0174 21.4811C50.3329 21.5168 51.6577 21.4945 52.9686 21.4052C53.9747 21.3383 54.6849 20.7894 54.9853 19.763C55.0946 19.397 55.1583 18.9061 55.4132 18.7276C55.6727 18.5446 56.1507 18.674 56.5285 18.6696C56.8472 18.6651 57.1704 18.6696 57.5709 18.6696C57.4936 19.7094 57.4298 20.7091 57.3297 21.7043C57.2842 22.1595 57.1794 22.6102 57.0976 23.0609C57.002 23.5608 56.6924 23.8999 56.2326 24.0383C55.7319 24.19 55.2083 24.3507 54.6939 24.3507C50.2874 24.3774 45.8854 24.3685 41.4789 24.3685C41.4242 24.3551 41.3696 24.3462 41.2786 24.3328Z" fill="#C8102E"/>
<path d="M139.761 11.5069C139.694 10.1993 139.657 8.97203 139.552 7.75369C139.507 7.26279 139.17 7.03519 138.66 6.99502C138.369 6.97271 138.077 6.99057 137.717 6.99057C137.717 6.33454 137.704 5.67405 137.731 5.01356C137.736 4.91984 137.899 4.79935 138.014 4.74134C139.21 4.1701 140.472 3.87556 141.792 3.84879C142.966 3.82647 143.58 4.41555 143.631 5.61603C143.654 6.16495 143.64 6.71387 143.635 7.26279C143.617 11.4622 143.603 15.6662 143.585 19.8656C143.585 19.9995 143.585 20.1334 143.585 20.2673C143.59 21.5972 143.913 21.8962 145.22 21.7801C145.333 21.7712 145.447 21.7801 145.606 21.7801C145.606 22.4986 145.616 23.1904 145.597 23.8821C145.593 23.9803 145.474 24.1275 145.384 24.1543C144.323 24.4622 143.244 24.672 142.133 24.5783C141.164 24.4979 140.476 24.0472 140.275 23.1457C139.507 23.5697 138.788 24.132 137.977 24.3819C134.831 25.3593 130.708 24.0383 130.148 19.3167C129.993 18.0002 130.102 16.7104 130.471 15.443C131.199 12.9483 133.17 11.3417 135.737 11.0651C137.071 10.9312 138.369 11.0026 139.761 11.5069ZM139.702 17.719V15.8491C139.702 14.2693 139.707 14.2381 138.136 14.0596C136.229 13.8454 134.663 14.5772 134.254 16.6926C134.021 17.902 134.062 19.1025 134.713 20.1825C135.624 21.6953 137.909 22.0836 139.42 21.0036C139.566 20.901 139.688 20.6555 139.694 20.477C139.716 19.5577 139.702 18.6383 139.702 17.719Z" fill="#C8102E"/>
<path d="M129.483 21.7667C129.483 22.5165 129.492 23.2261 129.473 23.9312C129.473 24.0115 129.36 24.1409 129.273 24.1632C128.212 24.4801 127.133 24.6765 126.023 24.5783C125.08 24.4935 124.379 24.0651 124.098 23.052C123.842 23.2573 123.628 23.4537 123.391 23.6143C121.698 24.7836 119.895 25.0022 118.01 24.1677C116.54 23.5161 115.789 22.1416 115.885 20.4145C115.972 18.7856 116.754 17.7726 118.348 17.2147C119.873 16.6837 121.457 16.6614 123.041 16.6747C123.228 16.6747 123.419 16.6747 123.605 16.6747C123.951 15.0771 123.501 14.1131 122.299 13.8721C120.501 13.5151 119.686 14.0863 119.39 15.9384H117.15C116.995 15.0057 116.8 14.0685 116.945 13.1045C117.06 12.3548 117.551 11.8862 118.211 11.6318C120.369 10.8152 122.59 10.659 124.826 11.2213C126.528 11.6497 127.384 12.7431 127.443 14.5639C127.502 16.3445 127.457 18.1251 127.466 19.9058C127.466 20.2583 127.484 20.6198 127.543 20.9679C127.648 21.6016 127.976 21.8515 128.617 21.8203C128.89 21.8158 129.164 21.7891 129.483 21.7667ZM123.664 19.1248C122.668 19.0311 121.735 18.9909 120.82 19.2587C120.114 19.464 119.768 19.9102 119.809 20.5172C119.854 21.2401 120.287 21.7534 120.997 21.8426C121.839 21.9497 122.663 21.8158 123.427 21.432C123.532 21.3785 123.656 21.2267 123.656 21.1196C123.674 20.4725 123.664 19.821 123.664 19.1248Z" fill="#C8102E"/>
<path d="M97.0111 24.5649C95.8549 24.5292 94.7304 24.373 93.6652 23.8999C92.0765 23.1993 91.025 22.0077 90.5106 20.3476C89.9278 18.4777 89.9096 16.5944 90.6517 14.7736C91.6304 12.3637 93.5378 11.1632 96.0142 10.8017C97.3207 10.6098 98.6226 10.6902 99.8881 11.074C101.941 11.6988 103.239 13.0733 103.767 15.1708C104.163 16.7551 104.163 18.3527 103.694 19.9147C102.915 22.5209 101.104 23.9535 98.4997 24.4221C98.008 24.5069 97.5072 24.5202 97.0111 24.5649ZM100.052 17.7859C99.9883 17.1567 99.961 16.6212 99.8744 16.099C99.6377 14.6442 98.7728 13.8453 97.3707 13.7427C95.9004 13.64 94.8579 14.3005 94.4209 15.6661C94.0203 16.9157 94.0749 18.1876 94.4026 19.4416C94.7669 20.8429 95.6227 21.4945 97.0475 21.5034C98.5088 21.5124 99.4011 20.8831 99.7834 19.4907C99.9382 18.915 99.9746 18.2992 100.052 17.7859Z" fill="#C8102E"/>
<path d="M152.971 24.7657C151.802 24.7345 150.664 24.5693 149.586 24.0918C148.064 23.4135 147.027 22.2755 146.499 20.6912C145.884 18.8526 145.843 16.9782 146.526 15.1529C147.464 12.6449 149.394 11.3819 151.943 11.0026C153.25 10.8062 154.547 10.8865 155.817 11.2703C157.889 11.8951 159.191 13.2786 159.719 15.3984C160.105 16.9693 160.105 18.5491 159.646 20.1021C158.872 22.7084 157.064 24.1498 154.46 24.6229C153.969 24.7077 153.468 24.7211 152.971 24.7657ZM155.999 18.0091C155.93 17.3531 155.903 16.8175 155.817 16.2909C155.58 14.8539 154.738 14.064 153.35 13.948C151.88 13.823 150.8 14.4969 150.364 15.8804C149.963 17.1433 150.022 18.4286 150.364 19.696C150.723 21.0438 151.574 21.6864 152.958 21.7043C154.41 21.7266 155.321 21.1152 155.703 19.7719C155.876 19.1694 155.917 18.5223 155.999 18.0091Z" fill="#C8102E"/>
<path d="M66.4434 22.1684V24.3462H58.6363V22.1595C59.0687 22.088 59.4875 22.0256 59.9018 21.9408C60.3115 21.856 60.5346 21.5971 60.5482 21.1643C60.5528 20.9857 60.5664 20.8072 60.5664 20.6287C60.5619 16.6926 60.5573 12.7609 60.5482 8.82474C60.5482 8.60161 60.5209 8.37847 60.4891 8.1598C60.3433 7.17799 60.0793 6.95931 59.096 6.98162C58.9504 6.98609 58.8047 6.99947 58.5953 7.0084C58.5953 6.34345 58.5862 5.68297 58.6044 5.01802C58.609 4.92876 58.7455 4.80826 58.8457 4.76363C60.052 4.23257 61.2948 3.86663 62.624 3.84878C63.8713 3.83092 64.4631 4.3843 64.5041 5.65619C64.5314 6.49965 64.5132 7.34757 64.5132 8.19549C64.5086 12.145 64.5041 16.0946 64.5086 20.0441C64.5086 20.4725 64.5542 20.901 64.6088 21.3249C64.6543 21.6686 64.8637 21.8872 65.2051 21.9542C65.6058 22.03 66.0108 22.0925 66.4434 22.1684Z" fill="#C8102E"/>
<path d="M110.787 12.7654C111.528 11.8862 112.371 11.2569 113.449 11.0517C113.805 10.9847 114.183 10.9669 114.542 11.0115C115.376 11.1141 115.881 11.6541 115.871 12.511C115.858 13.5106 115.739 14.5103 115.667 15.5189H113.3C113.254 15.3314 113.218 15.1619 113.168 14.9923C112.949 14.2559 112.572 14.0417 111.842 14.2336C111.742 14.2604 111.647 14.2916 111.551 14.3273C110.869 14.5906 110.804 14.6799 110.809 15.4162C110.823 17.2281 110.819 19.0355 110.863 20.8429C110.886 21.731 111.133 21.9363 112.012 22.039C112.362 22.0791 112.712 22.1148 113.09 22.155V24.3373H104.928V22.1595C105.287 22.097 105.66 22.0479 106.029 21.972C106.713 21.8337 106.876 21.6596 106.895 20.959C106.922 19.696 106.922 18.4375 106.918 17.1746C106.918 16.523 106.931 15.867 106.853 15.2199C106.767 14.4924 106.539 14.3229 105.815 14.2782C105.524 14.2604 105.233 14.2738 104.892 14.2738C104.892 13.5776 104.882 12.9171 104.905 12.2521C104.909 12.154 105.056 12.0201 105.169 11.9665C106.348 11.4042 107.581 11.0695 108.898 11.0561C109.976 11.0472 110.481 11.4578 110.705 12.5288C110.718 12.5913 110.746 12.6404 110.787 12.7654Z" fill="#C8102E"/>
</g>
<defs>
<clipPath id="clip0_37_654">
<rect width="160" height="40" fill="white"/>
</clipPath>
</defs>
</svg>
