<svg width="23" height="25" viewBox="0 0 23 25" fill="none" xmlns="http://www.w3.org/2000/svg">
<g clip-path="url(#clip0_183_176)">
<path d="M0.727995 3.55287C0.335998 3.55287 0 3.21798 0 2.80868C0 2.41798 0.335998 2.0831 0.727995 2.0831H2.63198C2.65065 2.0831 2.68798 2.0831 2.70665 2.0831C3.37864 2.1017 3.97597 2.23194 4.47997 2.54822C5.03996 2.9017 5.45063 3.44124 5.67463 4.24124C5.67463 4.25984 5.67463 4.27845 5.69329 4.29705L5.87996 5.04124H22.2132C22.6238 5.04124 22.9412 5.37612 22.9412 5.76682C22.9412 5.84124 22.9225 5.91566 22.9038 5.99008L20.9999 13.6366C20.9252 13.9715 20.6265 14.1947 20.2905 14.1947H8.34394C8.60527 15.1622 8.86661 15.6831 9.22127 15.925C9.6506 16.204 10.3973 16.2226 11.6479 16.204H20.1039C20.5145 16.204 20.8319 16.5389 20.8319 16.9296C20.8319 17.3389 20.4959 17.6552 20.1039 17.6552H11.6666C10.1173 17.6738 9.16527 17.6366 8.39994 17.1343C7.61595 16.6133 7.20528 15.7203 6.79462 14.1017L4.2933 4.66915C4.2933 4.65054 4.2933 4.65054 4.27464 4.63194C4.16264 4.22263 3.97597 3.94356 3.71464 3.79473C3.45331 3.62729 3.09864 3.55287 2.68798 3.55287C2.66931 3.55287 2.65065 3.55287 2.63198 3.55287H0.727995ZM17.9199 18.511C18.9092 18.511 19.7119 19.311 19.7119 20.2971C19.7119 21.2831 18.9092 22.0831 17.9199 22.0831C16.9305 22.0831 16.1279 21.2831 16.1279 20.2971C16.1279 19.311 16.9305 18.511 17.9199 18.511ZM10.0613 18.511C11.0506 18.511 11.8533 19.311 11.8533 20.2971C11.8533 21.2831 11.0506 22.0831 10.0613 22.0831C9.07194 22.0831 8.26928 21.2831 8.26928 20.2971C8.26928 19.311 9.07194 18.511 10.0613 18.511Z" fill="#C8102E"/>
</g>
<defs>
<clipPath id="clip0_183_176">
<rect width="23" height="25" fill="white"/>
</clipPath>
</defs>
</svg>
